<?xml version="1.0" standalone="no"?>
<!DOCTYPE svg PUBLIC "-//W3C//DTD SVG 20010904//EN"
 "http://www.w3.org/TR/2001/REC-SVG-20010904/DTD/svg10.dtd">
<svg version="1.0" xmlns="http://www.w3.org/2000/svg"
 width="587.000000pt" height="541.000000pt" viewBox="0 0 587.000000 541.000000"
 preserveAspectRatio="xMidYMid meet">
<metadata>
Created by potrace 1.15, written by Peter Selinger 2001-2017
</metadata>
<g transform="translate(0.000000,541.000000) scale(0.100000,-0.100000)"
fill="#000000" stroke="none">
<path d="M2385 5400 c-394 -29 -781 -100 -1090 -200 -181 -59 -388 -144 -450
-185 -84 -56 -103 -122 -59 -206 l13 -27 -67 -6 c-243 -25 -415 -71 -600 -162
-124 -61 -132 -67 -132 -94 0 -26 5 -30 43 -40 114 -28 169 -46 245 -81 96
-44 202 -107 202 -119 0 -5 -27 -46 -60 -92 -67 -93 -196 -307 -232 -383 -12
-27 -29 -54 -36 -58 -17 -11 -15 -42 3 -57 12 -10 35 -5 122 28 60 22 135 46
168 53 124 26 378 13 655 -34 l75 -13 9 -84 c8 -84 8 -108 3 -349 l-2 -124
-45 -13 c-53 -16 -70 -36 -70 -81 0 -68 60 -76 265 -37 44 9 132 24 195 34 63
10 158 30 210 44 52 14 124 29 160 34 36 5 94 16 130 25 36 9 119 28 185 43
135 30 164 42 194 80 27 35 26 49 -4 80 -22 22 -33 25 -73 21 -97 -9 -391 -75
-430 -96 -10 -5 -30 -7 -45 -4 -15 3 -50 -3 -79 -15 -62 -23 -128 -37 -253
-52 -49 -6 -104 -13 -121 -16 l-32 -6 -6 54 c-9 81 -9 87 3 177 7 54 7 90 1
102 -12 21 -13 146 -2 152 4 2 52 0 107 -5 131 -12 197 -4 235 29 40 33 39 56
-9 200 -22 65 -42 137 -46 160 -6 41 -6 42 27 47 37 7 322 29 663 51 376 26
1275 20 1700 -10 126 -9 306 -25 351 -30 l41 -6 -9 -47 c-13 -66 -48 -173 -64
-197 -31 -44 -9 -101 49 -133 26 -14 57 -17 157 -17 116 0 127 -2 148 -22 28
-29 54 -29 103 -1 39 22 42 22 217 10 97 -7 204 -18 237 -26 73 -15 135 -37
135 -47 0 -4 -18 -10 -39 -14 -59 -10 -160 -62 -197 -101 l-34 -35 -31 23
c-26 20 -42 23 -112 22 -96 -1 -393 -49 -423 -69 -12 -8 -26 -10 -34 -5 -7 4
-18 6 -24 4 -21 -8 -478 -84 -503 -84 -14 0 -55 -6 -92 -14 -36 -8 -98 -19
-137 -25 -97 -14 -178 -47 -223 -92 -38 -36 -39 -39 -45 -126 -7 -96 -24 -261
-33 -307 -5 -22 -13 4 -33 100 -25 119 -36 165 -61 267 -6 22 -20 44 -35 54
-24 15 -33 15 -152 -6 -70 -12 -137 -28 -148 -36 -28 -18 -38 -90 -17 -122 12
-21 10 -30 -20 -95 -19 -40 -45 -101 -58 -135 -22 -56 -27 -62 -59 -68 -19 -4
-43 -14 -52 -22 -16 -14 -18 -14 -26 8 -7 19 -4 27 19 46 35 30 46 66 54 184
l6 96 -31 26 c-55 47 -98 47 -375 1 -191 -32 -197 -36 -193 -117 3 -53 6 -63
26 -72 19 -8 21 -15 16 -40 -4 -16 -7 -35 -7 -42 0 -7 -13 -15 -29 -18 -44
-10 -59 -41 -46 -95 5 -25 19 -53 30 -62 15 -14 18 -25 13 -50 -12 -58 -15
-66 -35 -71 -38 -10 -53 -94 -24 -135 20 -29 64 -28 214 2 83 18 119 30 131
44 11 14 20 17 30 11 18 -11 67 -11 143 1 33 5 104 14 156 20 52 6 112 15 133
20 103 27 117 31 117 39 0 5 19 6 43 4 65 -7 278 34 299 57 14 18 22 19 69 10
82 -16 286 24 353 69 26 17 33 18 55 7 22 -11 50 -9 191 15 91 15 197 35 235
44 39 9 104 20 145 25 139 16 263 47 281 68 11 14 20 17 30 11 21 -13 74 -11
164 7 44 8 104 17 134 20 30 2 68 11 85 18 17 7 51 14 76 14 97 2 239 57 279
108 10 13 25 62 34 110 14 73 14 92 3 118 -13 30 -64 78 -111 104 -18 9 -10
15 62 47 45 21 84 44 87 52 3 8 9 52 12 97 8 94 -4 116 -59 116 -32 0 -32 1
-66 110 -19 61 -58 170 -87 242 -29 73 -50 136 -48 140 7 12 220 78 303 94 42
8 86 17 99 20 15 3 22 12 22 28 0 58 -368 308 -488 332 -28 6 -29 8 -21 37 15
52 10 129 -11 174 -60 134 -308 257 -727 362 -304 76 -625 131 -983 167 -189
19 -1048 28 -1255 14z m615 -264 c0 -34 -4 -45 -18 -48 -17 -5 -18 -12 -11
-74 21 -173 43 -315 49 -319 7 -4 20 112 36 313 6 72 5 82 -10 82 -12 0 -16
10 -16 45 l0 45 85 0 85 0 0 -41 c0 -27 -6 -46 -16 -54 -12 -9 -24 -64 -46
-221 -16 -115 -34 -247 -41 -294 l-13 -85 -66 -3 c-79 -3 -80 -3 -96 108 -18
118 -50 328 -63 412 -9 61 -16 79 -30 83 -15 5 -19 16 -19 51 l0 44 95 0 95 0
0 -44z m430 -6 c0 -43 -3 -50 -19 -50 -11 0 -22 -3 -24 -7 -3 -5 -8 -66 -11
-138 -4 -71 -9 -181 -12 -243 -5 -107 -5 -114 14 -119 12 -3 22 -16 26 -35 12
-61 15 -59 -96 -56 l-103 3 -3 37 c-3 32 1 40 22 49 32 15 34 32 41 300 l5
207 -24 6 c-24 6 -36 30 -36 74 0 21 3 22 110 22 l110 0 0 -50z m-795 0 c7
-43 2 -60 -21 -60 -17 0 -17 7 -4 -217 15 -260 18 -280 41 -286 15 -4 19 -14
19 -50 l0 -44 -77 -6 c-43 -2 -81 -3 -85 0 -13 7 -9 93 3 93 9 0 10 35 5 126
-11 183 -22 194 -30 29 -4 -77 -9 -166 -12 -197 l-6 -58 -53 0 -53 0 -16 68
c-23 91 -98 333 -103 328 -3 -3 16 -164 33 -283 3 -19 11 -33 18 -33 14 0 26
-30 26 -66 0 -18 -9 -23 -57 -33 -97 -19 -111 -16 -119 24 -5 26 -2 41 10 54
19 21 16 56 -40 464 -5 37 -10 47 -25 47 -15 0 -19 7 -19 35 0 19 -1 38 -2 42
-4 10 37 19 118 26 l71 7 17 -58 c8 -31 29 -97 45 -147 15 -49 39 -126 52
-170 19 -66 24 -75 30 -55 4 14 7 51 8 82 1 32 6 104 11 160 6 57 13 126 16
155 l5 52 52 4 c143 10 134 11 142 -33z m972 26 c5 -5 51 -171 83 -301 l17
-70 6 55 c14 125 15 212 1 217 -9 3 -14 22 -14 50 l0 46 88 -7 c48 -4 90 -10
94 -14 14 -14 -4 -84 -22 -89 -19 -5 -21 -18 -45 -323 -8 -102 -17 -204 -21
-227 -6 -43 -7 -43 -48 -43 -22 0 -46 4 -52 8 -6 4 -17 32 -23 62 -21 101 -62
275 -74 315 -11 36 -12 26 -18 -110 -5 -120 -3 -152 8 -161 7 -6 13 -30 13
-53 l0 -42 -87 3 -88 3 -3 43 c-3 37 0 44 17 49 17 4 21 14 23 52 0 25 2 57 3
71 1 14 5 86 9 160 4 74 9 154 12 177 5 34 3 42 -13 47 -15 5 -18 14 -14 52
l3 46 70 -5 c39 -3 72 -8 75 -11z m448 -37 c110 -13 160 -35 176 -77 11 -28
11 -30 -37 -342 l-35 -225 -36 -34 c-33 -31 -39 -33 -82 -27 -25 4 -77 10
-116 13 -38 3 -75 9 -80 14 -6 4 -9 26 -7 48 3 31 8 41 22 41 23 0 27 17 40
165 6 66 15 149 20 185 14 99 13 157 -5 164 -18 7 -20 67 -3 84 7 7 19 10 28
8 8 -3 60 -10 115 -17z m-2009 -96 l7 -83 -31 0 c-24 0 -34 7 -50 34 -16 28
-25 33 -46 29 -30 -6 -31 -15 -12 -113 13 -71 36 -89 62 -51 15 21 48 28 58
13 3 -5 8 -43 12 -85 6 -71 5 -77 -12 -77 -11 0 -28 7 -38 15 -47 36 -56 8
-35 -110 14 -80 19 -88 51 -76 16 6 27 20 31 39 5 24 12 30 36 34 28 4 31 2
38 -31 4 -20 7 -58 7 -85 l1 -49 -60 -12 c-34 -7 -95 -16 -137 -20 -73 -7 -75
-6 -81 16 -11 42 -8 69 8 69 17 0 17 -5 -10 143 -7 38 -20 74 -28 80 -8 7 -20
28 -26 47 -10 30 -9 37 5 47 15 11 15 20 4 97 -11 71 -16 86 -31 86 -13 0 -22
12 -29 40 -14 51 -8 60 38 61 20 0 84 8 142 18 58 10 108 15 112 12 3 -3 10
-43 14 -88z m2434 25 c24 -13 53 -35 63 -50 20 -26 20 -29 3 -135 -10 -59 -26
-144 -36 -188 -10 -44 -23 -114 -30 -155 -20 -124 -50 -160 -132 -160 -55 0
-94 13 -127 43 -37 35 -41 59 -26 154 54 342 75 458 87 469 48 48 130 56 198
22z m-2800 -8 c21 -11 32 -43 56 -172 16 -81 16 -88 1 -112 -21 -31 -21 -36
-4 -36 27 0 44 -37 62 -135 36 -192 30 -201 -153 -241 -68 -14 -125 -24 -127
-22 -1 1 -6 21 -9 44 -6 34 -4 42 12 50 19 9 19 11 -5 111 -14 59 -29 102 -36
100 -11 -2 -46 57 -47 80 0 6 9 14 19 18 18 5 18 8 4 58 -8 29 -18 69 -20 90
-4 30 -9 37 -28 37 -19 0 -24 7 -29 41 -4 23 -4 44 -2 47 8 8 218 50 254 51
18 1 42 -4 52 -9z m3000 -31 c27 -6 50 -16 50 -22 0 -18 -46 -191 -76 -287
-15 -47 -36 -118 -47 -157 -18 -64 -23 -73 -44 -73 -27 0 -29 22 -13 142 5 40
14 109 20 153 14 114 43 255 52 255 4 0 30 -5 58 -11z m-3384 -1295 l29 -6 3
-153 c2 -119 -1 -163 -13 -200 -15 -42 -15 -49 -1 -64 9 -10 16 -41 18 -76 3
-69 -7 -66 138 -45 47 7 108 13 135 15 28 1 60 7 72 13 12 7 32 12 45 12 13 0
43 9 67 20 46 21 81 26 81 11 0 -27 -41 -54 -110 -72 -72 -19 -329 -69 -380
-74 -14 -1 -32 -4 -40 -8 -21 -8 -152 -27 -189 -27 -21 0 -31 5 -31 15 0 18
24 31 78 40 24 4 46 14 50 23 5 10 6 55 2 102 -3 47 -2 112 3 145 8 59 3 244
-9 304 -7 34 -2 36 52 25z m4369 -84 c3 -6 3 -41 -1 -78 l-6 -69 -74 -31
c-101 -44 -108 -43 -101 13 8 53 -2 61 -58 51 -44 -9 -65 -30 -65 -67 0 -24 8
-33 48 -54 91 -50 167 -97 190 -117 24 -23 29 -67 13 -128 -5 -19 -12 -47 -15
-61 -12 -55 -170 -124 -265 -117 -28 2 -59 -3 -81 -14 -19 -9 -51 -18 -70 -20
-34 -3 -35 -2 -34 32 2 64 15 165 22 171 8 7 117 29 146 29 19 0 21 -5 17 -51
-4 -59 8 -72 54 -63 50 10 65 31 65 89 0 34 -5 57 -15 65 -17 14 -125 80 -132
80 -2 0 -28 18 -58 40 l-55 41 0 56 c0 51 3 59 35 89 53 50 223 105 278 90 12
-3 27 0 34 6 27 22 118 35 128 18z m-565 -146 c15 -17 17 -31 11 -116 -8 -108
-16 -124 -82 -156 -33 -17 -36 -20 -19 -25 26 -7 39 -43 38 -107 0 -58 5 -67
42 -72 19 -2 26 -10 28 -32 2 -16 0 -32 -5 -37 -13 -13 -173 -41 -199 -35 -33
9 -43 33 -45 112 -3 94 -11 114 -47 114 -28 0 -29 -2 -36 -61 -10 -98 -9 -109
14 -109 17 0 20 -7 20 -39 0 -46 7 -42 -140 -71 -143 -27 -140 -28 -140 19 0
34 4 40 30 50 17 5 29 14 28 18 -2 8 8 85 18 136 5 26 4 28 -15 22 -17 -5 -23
-1 -31 20 -18 48 -13 62 27 72 l38 9 10 82 11 82 -28 0 c-26 0 -28 3 -28 39 0
25 5 41 14 44 12 5 254 46 351 61 56 8 117 -1 135 -20z m-555 -81 c-2 -16 -7
-49 -10 -75 -7 -50 -4 -48 -78 -63 -11 -2 -26 8 -40 26 -19 27 -25 29 -62 23
-22 -3 -43 -9 -46 -13 -4 -3 -9 -40 -12 -82 l-7 -76 28 5 c15 3 39 13 54 24
15 11 44 22 63 25 34 5 35 5 30 -23 -2 -16 -7 -50 -10 -75 -6 -44 -8 -47 -40
-53 -19 -4 -43 -2 -54 4 -26 13 -68 13 -77 -1 -9 -15 -23 -149 -18 -164 10
-24 86 0 119 38 24 28 40 36 78 42 l48 6 -6 -48 c-12 -93 -16 -103 -38 -107
-12 -3 -56 -12 -97 -20 -96 -20 -316 -56 -339 -56 -14 0 -16 7 -13 36 4 29 10
39 34 48 32 12 34 19 43 122 5 65 4 72 -13 76 -12 4 -21 17 -24 36 -5 35 6 52
34 52 19 0 23 13 33 103 6 57 6 57 -20 57 -25 0 -26 3 -23 42 l3 42 190 32
c105 17 199 34 210 37 11 2 30 5 42 6 19 1 22 -3 18 -26z m-2167 -75 c-3 -24
-53 -39 -323 -98 -55 -12 -117 -26 -138 -31 -52 -14 -56 -6 -17 28 42 35 66
44 220 77 69 14 141 30 160 35 19 5 50 9 68 10 29 1 33 -2 30 -21z m1668 -5
c-2 -16 -7 -49 -11 -74 l-6 -47 -74 -31 c-41 -17 -79 -31 -85 -31 -5 0 -10 23
-10 50 0 46 -2 50 -24 50 -41 0 -84 -20 -90 -43 -3 -12 -6 -38 -6 -57 0 -19
-4 -51 -10 -70 -8 -30 -40 -268 -40 -299 0 -12 65 -14 94 -2 12 4 27 28 36 56
16 48 17 49 76 61 103 22 105 21 98 -33 -4 -27 -13 -58 -20 -71 -25 -40 -93
-73 -188 -93 -195 -40 -285 -15 -263 74 12 46 36 235 42 332 5 60 13 108 22
122 31 47 225 113 288 97 14 -3 31 -1 39 5 13 11 79 28 119 30 15 1 18 -4 13
-26z m1252 -77 c34 -21 62 -39 62 -42 0 -3 -9 0 -19 5 -14 8 -43 6 -102 -6
-104 -21 -129 -42 -129 -108 0 -25 -4 -45 -10 -45 -5 0 -10 21 -11 48 0 26 -4
56 -8 67 -6 15 -2 24 17 39 29 23 52 74 52 116 l0 31 43 -34 c23 -19 70 -51
105 -71z m-1949 -48 c20 -52 83 -333 96 -430 6 -43 9 -48 32 -48 24 0 25 -2
20 -36 -3 -20 -7 -38 -9 -39 -5 -5 -230 -45 -250 -45 -15 0 -18 7 -15 38 2 30
7 38 25 40 22 3 40 27 29 38 -3 3 -40 0 -82 -7 -54 -9 -79 -18 -86 -31 -8 -15
-6 -18 16 -18 22 0 25 -4 25 -39 l0 -39 -136 -26 c-75 -14 -141 -23 -145 -20
-5 3 -48 -2 -96 -11 -135 -25 -150 -15 -154 101 -3 94 -11 114 -47 114 -28 0
-29 -2 -36 -61 -10 -98 -9 -109 14 -109 17 0 20 -7 20 -39 0 -46 7 -42 -140
-71 -143 -27 -140 -28 -140 19 0 34 4 40 30 50 17 5 29 14 28 18 -2 8 8 85 18
136 5 26 4 28 -15 22 -17 -5 -23 -1 -31 20 -18 48 -13 62 27 72 l38 9 10 82
11 82 -28 0 c-26 0 -28 3 -28 39 0 25 5 41 14 44 35 14 337 59 398 61 99 2
108 -10 99 -136 -8 -108 -16 -124 -82 -156 -33 -17 -36 -20 -19 -25 26 -7 39
-43 38 -106 0 -27 3 -54 6 -59 11 -18 78 -22 107 -6 34 17 38 34 9 34 -19 0
-23 8 -34 67 0 4 19 12 43 18 47 11 47 12 79 90 12 28 31 73 43 100 31 69 69
159 69 163 0 1 -9 2 -21 2 -17 0 -20 5 -17 38 l3 37 120 21 c66 12 123 22 128
23 4 1 11 -9 16 -21z m471 -37 c0 -36 23 -61 55 -61 27 0 149 50 175 73 19 16
30 13 30 -10 0 -7 -6 -13 -13 -13 -7 0 -24 -10 -36 -21 -20 -19 -22 -28 -17
-63 4 -22 14 -51 22 -63 7 -12 14 -41 14 -65 l0 -42 -20 22 c-23 24 -69 29
-130 13 -19 -5 -47 -12 -62 -15 -37 -8 -58 -32 -58 -66 0 -19 -7 -33 -19 -40
-29 -15 -29 -14 -20 38 10 61 30 206 36 257 7 67 13 85 28 85 10 0 15 -10 15
-29z"/>
<path d="M4046 4988 c-3 -18 -10 -73 -16 -123 -6 -49 -16 -124 -21 -165 -6
-41 -13 -99 -16 -127 -5 -52 -4 -53 21 -53 16 0 31 9 40 23 17 27 45 213 53
354 l6 102 -27 11 c-15 5 -29 10 -31 10 -1 0 -5 -15 -9 -32z"/>
<path d="M4384 4972 c-13 -8 -42 -149 -74 -356 -21 -134 -21 -140 -4 -153 21
-15 40 -17 49 -4 8 14 46 197 56 271 4 36 15 101 23 145 8 44 12 83 8 86 -13
12 -47 19 -58 11z"/>
<path d="M1613 4654 c-7 -3 -13 -15 -13 -26 0 -29 32 -161 41 -172 5 -5 19 -2
33 8 30 19 31 39 12 131 -11 52 -16 60 -37 62 -13 1 -30 -1 -36 -3z"/>
<path d="M4867 3401 c-20 -5 -39 -10 -41 -12 -2 -2 -7 -39 -11 -81 -7 -78 -7
-78 18 -78 13 0 38 5 55 11 27 9 33 18 42 62 14 62 10 101 -10 103 -8 1 -32
-1 -53 -5z"/>
<path d="M2617 3011 c-20 -5 -39 -10 -41 -12 -2 -2 -7 -39 -11 -81 -7 -78 -7
-78 18 -78 13 0 38 5 55 11 27 9 33 18 42 62 14 62 10 101 -10 103 -8 1 -32
-1 -53 -5z"/>
<path d="M3067 4068 c-15 -11 -17 -32 -18 -147 0 -98 3 -138 13 -147 11 -11
108 -24 203 -28 17 0 33 -5 36 -9 3 -4 21 -10 41 -13 29 -5 36 -3 40 14 3 11
2 24 -2 29 -4 4 -10 29 -14 56 -5 42 -4 47 14 47 21 0 30 10 47 60 29 80 11
102 -97 125 -59 12 -75 13 -82 3 -11 -18 -10 -32 3 -45 15 -15 -18 -201 -39
-222 -13 -13 -14 -8 -7 40 4 30 11 58 16 64 5 5 9 17 9 27 0 14 -9 18 -40 20
-22 0 -46 1 -52 2 -7 1 -14 -11 -16 -26 -2 -18 1 -28 10 -28 10 0 12 -11 10
-40 -3 -26 -9 -40 -18 -40 -11 0 -14 17 -14 69 0 108 10 162 29 159 9 -2 16
-13 16 -28 0 -22 5 -25 38 -28 l37 -3 0 50 0 51 -73 0 c-43 0 -80 -5 -90 -12z"/>
<path d="M2798 4054 c-16 -8 -28 -20 -28 -26 0 -7 -6 -4 -13 6 -12 16 -18 16
-110 -14 -53 -17 -100 -37 -104 -45 -5 -7 -15 -13 -23 -13 -41 3 -62 -5 -95
-33 -20 -18 -35 -40 -35 -53 0 -23 68 -152 106 -203 29 -39 63 -43 111 -14 47
29 48 49 8 147 -33 79 -35 89 -21 100 9 6 16 18 16 26 0 8 3 18 7 22 12 11 72
-185 66 -215 -7 -35 7 -42 53 -25 29 10 39 19 39 35 0 11 -4 20 -9 19 -8 -3
-66 180 -66 206 0 5 7 2 17 -5 9 -8 24 -13 33 -11 14 2 21 -15 39 -92 12 -52
29 -100 38 -107 18 -16 84 -15 114 2 21 11 21 15 15 138 -9 155 -17 171 -84
171 -26 -1 -59 -8 -74 -16z"/>
<path d="M3456 4002 c-4 -11 -4 -26 0 -35 3 -9 -11 -63 -31 -121 -40 -118 -39
-132 19 -160 71 -34 80 -28 141 94 51 102 73 127 90 100 9 -14 -72 -159 -106
-192 -16 -15 -29 -31 -29 -35 0 -4 18 -18 41 -31 32 -19 43 -21 55 -11 8 7 14
19 12 28 -2 19 29 81 42 81 5 0 12 -4 15 -10 9 -14 78 -12 94 3 7 6 -10 -19
-38 -57 -29 -39 -51 -80 -51 -93 0 -32 60 -93 92 -93 16 0 51 28 116 93 50 51
92 99 92 107 0 26 -38 79 -69 95 -42 21 -79 19 -102 -7 -19 -23 -19 -23 -2 8
14 26 15 37 6 56 -14 31 -142 107 -255 153 -120 48 -125 49 -132 27z"/>
<path d="M2303 3862 c-24 -15 -43 -32 -43 -39 0 -6 9 -33 21 -60 43 -100 45
-97 -29 -48 -37 25 -71 45 -77 45 -5 -1 -28 -16 -50 -35 -34 -29 -38 -37 -29
-52 6 -10 19 -18 27 -18 22 0 157 -135 157 -156 0 -9 7 -22 16 -30 13 -11 21
-7 51 24 31 30 35 38 23 52 -7 8 -18 14 -24 13 -7 -2 -28 15 -47 37 -36 42
-31 40 42 -18 50 -40 59 -43 77 -25 8 8 8 17 1 32 -10 20 -10 20 5 2 15 -19
16 -18 56 8 35 23 39 29 30 46 -6 11 -15 20 -20 20 -18 0 -125 172 -114 183 9
9 -6 47 -19 47 -7 0 -31 -13 -54 -28z"/>
<path d="M2905 3464 l0 -104 35 -1 c19 -1 51 -3 70 -5 19 -1 40 2 47 8 19 16
15 67 -8 104 -15 25 -17 34 -7 34 7 0 24 3 37 7 l24 6 -5 -76 -5 -77 27 0 27
0 -5 80 c-4 71 -3 80 12 74 13 -5 16 0 16 25 l0 31 -132 -1 -133 0 0 -105z"/>
<path d="M1975 3033 c-33 -8 -94 -18 -136 -23 -124 -15 -191 -43 -261 -109
-21 -19 -38 -30 -38 -24 0 26 -87 46 -182 41 -114 -6 -206 -35 -275 -88 -44
-33 -53 -36 -65 -24 -33 33 -114 34 -298 3 -266 -45 -263 -44 -273 -112 -7
-44 8 -84 35 -92 21 -7 23 -34 8 -116 -5 -30 -12 -96 -14 -147 -6 -100 -9
-112 -32 -112 -29 0 -54 -38 -54 -82 0 -89 16 -92 235 -52 233 43 252 48 314
95 51 38 52 39 77 22 17 -11 54 -18 108 -21 129 -7 300 43 358 105 21 22 22
22 41 5 31 -28 185 -30 264 -3 34 12 77 21 95 21 47 1 109 16 124 32 12 12 44
191 44 249 0 15 5 29 12 31 19 7 27 105 10 129 -13 18 -22 20 -61 16 l-46 -6
52 25 c28 14 54 33 58 42 3 9 9 53 12 98 5 77 5 82 -18 97 -13 10 -26 17 -29
16 -3 -1 -32 -8 -65 -16z m72 -98 c-4 -36 -9 -70 -12 -76 -7 -11 -128 -67
-153 -71 -14 -3 -16 5 -14 45 4 44 2 47 -20 47 -12 0 -40 -5 -60 -10 -33 -10
-37 -15 -47 -59 -6 -27 -13 -80 -15 -118 -3 -37 -8 -106 -11 -153 -4 -47 -9
-96 -12 -109 -6 -23 -5 -24 46 -19 28 3 54 8 57 10 3 3 9 32 14 64 5 33 11 75
15 95 l6 35 -36 -4 -35 -4 0 41 c0 46 -10 41 135 66 50 9 100 18 113 21 19 4
22 0 22 -28 0 -17 -6 -39 -14 -47 -9 -10 -21 -67 -31 -146 -9 -71 -20 -134
-24 -138 -5 -5 -37 -10 -72 -12 -35 -1 -82 -10 -104 -20 -53 -23 -200 -31
-235 -13 -24 13 -25 18 -25 103 -1 50 3 115 7 145 4 30 10 78 12 105 9 94 26
159 49 183 52 56 186 106 271 101 23 -2 48 1 56 6 17 10 67 23 99 24 23 1 24
0 18 -64z m-581 -66 c56 -14 59 -24 45 -170 -36 -378 -31 -357 -97 -398 -103
-66 -338 -91 -387 -43 -17 18 -18 26 -8 103 6 46 18 147 26 224 21 186 18 180
73 217 91 63 246 92 348 67z m-478 -95 c19 -13 22 -24 22 -75 0 -32 -6 -103
-14 -157 -8 -53 -17 -136 -21 -184 -6 -83 -8 -89 -41 -118 -63 -55 -78 -60
-366 -111 -71 -12 -130 -20 -134 -17 -3 3 -2 22 1 41 6 29 13 37 35 42 16 3
31 14 35 23 4 9 11 71 16 137 5 66 13 145 17 175 4 30 6 70 4 87 -3 27 -7 32
-25 30 -19 -2 -22 4 -25 34 -2 25 2 38 12 42 8 3 81 18 163 32 81 15 150 28
152 31 2 2 36 4 75 4 49 0 79 -5 94 -16z"/>
<path d="M1259 2779 c-20 -8 -28 -19 -32 -47 -21 -132 -26 -178 -32 -267 -3
-55 -9 -111 -12 -124 -6 -24 -5 -24 48 -17 30 4 58 11 63 16 16 16 29 114 51
398 l4 52 -32 -1 c-18 0 -44 -5 -58 -10z"/>
<path d="M754 2683 c-30 -4 -32 -7 -38 -56 -8 -59 -25 -232 -33 -324 -6 -72
-2 -74 66 -47 57 23 63 45 77 292 6 113 0 145 -30 140 -6 0 -25 -3 -42 -5z"/>
<path d="M4967 2724 c-3 -4 -19 -8 -34 -10 -15 -2 -48 -8 -73 -13 -169 -37
-288 -61 -304 -61 -10 0 -35 -10 -54 -22 -24 -15 -53 -22 -91 -23 -31 0 -107
-11 -170 -23 -63 -12 -140 -22 -170 -22 -53 -1 -310 -57 -344 -76 -21 -12 -77
-84 -77 -98 0 -41 62 -68 120 -54 19 5 51 13 70 17 19 4 44 12 55 18 14 8 26
8 38 2 20 -12 109 4 167 28 19 8 64 16 100 19 35 3 74 11 86 18 37 25 97 38
124 28 17 -6 37 -4 70 8 25 10 77 22 115 28 39 5 80 13 93 17 22 7 22 6 24
-86 1 -52 0 -103 -1 -114 -2 -11 -4 -144 -5 -295 l-2 -275 -60 -61 c-32 -33
-66 -65 -75 -70 -9 -5 -56 -45 -105 -89 -166 -151 -199 -181 -224 -203 -14
-12 -68 -62 -120 -110 -52 -49 -121 -111 -153 -138 -32 -27 -101 -91 -154
-142 -52 -50 -99 -92 -105 -92 -5 0 -22 -13 -36 -28 -15 -15 -89 -84 -165
-152 -76 -67 -148 -136 -160 -152 -12 -16 -47 -43 -78 -59 -35 -19 -69 -48
-90 -76 -19 -25 -64 -71 -101 -103 l-66 -58 -64 60 c-35 33 -87 78 -117 100
-29 22 -77 63 -105 92 -29 28 -79 77 -111 109 -33 31 -70 67 -82 80 -134 134
-257 252 -288 277 -45 36 -333 307 -415 391 -30 31 -88 80 -128 109 -42 30
-102 88 -142 135 -39 46 -90 98 -114 116 -25 17 -47 37 -50 44 -2 7 -6 66 -7
132 -2 133 -8 155 -43 178 -21 14 -31 15 -61 5 -60 -20 -71 -50 -73 -196 -2
-149 9 -196 52 -227 17 -11 51 -42 76 -67 99 -99 287 -271 315 -289 32 -20
147 -136 209 -211 20 -25 61 -63 91 -85 30 -22 107 -90 173 -150 159 -147 158
-146 264 -255 107 -110 215 -211 252 -235 14 -9 65 -57 113 -107 135 -139 219
-208 251 -208 22 0 50 21 128 96 54 53 126 118 159 146 33 28 71 63 85 78 14
15 66 63 115 106 50 42 94 86 99 97 6 10 28 28 50 39 23 11 86 64 141 117 55
53 129 121 165 151 36 29 112 100 170 157 58 56 134 125 170 154 36 28 106 90
155 138 50 48 137 128 195 179 58 50 134 118 170 151 l65 59 -1 314 c0 172 -1
322 -2 333 0 11 1 38 3 60 1 22 3 68 4 101 l1 61 40 6 c23 3 66 20 98 39 53
32 57 37 60 75 2 33 -1 44 -20 57 -22 16 -79 22 -91 10z m73 -62 c0 -25 -80
-62 -148 -69 -29 -3 -55 -9 -57 -13 -2 -4 -5 -58 -6 -121 -2 -63 -7 -120 -12
-127 -7 -8 -6 -21 2 -38 7 -17 11 -117 10 -315 l-1 -290 -31 -27 c-18 -15 -50
-45 -72 -66 -22 -22 -85 -78 -140 -125 -55 -48 -142 -127 -193 -176 -51 -49
-106 -97 -122 -106 -16 -10 -83 -71 -149 -137 -66 -66 -149 -144 -183 -173
-35 -30 -110 -98 -168 -152 -58 -54 -121 -107 -141 -117 -20 -11 -47 -32 -60
-47 -13 -15 -56 -57 -95 -93 -39 -36 -120 -111 -180 -166 -60 -56 -124 -114
-143 -130 -18 -15 -56 -52 -84 -81 -27 -29 -54 -53 -58 -53 -16 0 -284 262
-287 281 -2 9 -16 22 -32 28 -41 14 -300 251 -335 307 -16 25 -41 52 -55 59
-15 8 -78 62 -141 121 -63 59 -137 126 -166 148 -28 23 -102 97 -164 165 -62
68 -126 131 -142 140 -16 9 -57 43 -92 76 -34 33 -122 114 -193 180 l-131 120
-1 152 c0 145 1 153 21 164 15 7 24 8 32 0 6 -6 12 -77 15 -166 4 -122 8 -155
18 -151 22 9 117 -70 173 -143 33 -44 81 -91 125 -122 39 -29 96 -77 126 -108
54 -55 290 -276 379 -356 44 -40 156 -146 281 -267 36 -35 73 -75 83 -91 9
-15 22 -27 28 -27 6 0 50 -38 98 -85 87 -85 208 -192 261 -231 17 -12 46 -41
66 -65 41 -50 54 -58 54 -34 0 27 233 249 290 276 28 13 52 31 55 40 5 15 62
72 211 210 34 31 71 60 82 63 12 4 23 15 27 25 3 9 24 31 46 47 23 16 78 65
124 109 45 44 93 89 108 100 23 18 244 218 292 264 21 21 142 130 258 235 38
33 77 64 86 68 10 3 29 21 42 40 13 18 35 42 49 53 69 55 85 74 71 84 -15 10
-17 30 -13 141 1 30 2 82 1 115 0 33 0 172 1 308 1 137 -1 251 -4 255 -4 3
-37 -2 -75 -12 -38 -10 -92 -20 -121 -21 -28 -2 -57 -8 -63 -13 -18 -14 -57
-25 -57 -15 0 4 21 23 46 42 40 30 61 37 177 58 73 12 143 27 157 32 27 10 87
22 133 26 15 2 31 6 34 9 4 3 17 6 30 6 15 0 23 -6 23 -18z m-610 -121 c0 -5
-21 -17 -47 -26 -27 -9 -67 -25 -91 -36 -23 -10 -59 -19 -80 -19 -20 0 -53 -5
-72 -10 -123 -37 -183 -48 -206 -38 -16 8 -27 8 -36 1 -16 -13 -131 -43 -164
-43 -28 0 -30 7 -6 38 25 32 248 86 392 96 58 3 139 15 180 26 83 21 130 25
130 11z"/>
<path d="M2820 2407 c-17 -9 -26 -22 -28 -45 -3 -29 0 -32 22 -32 19 0 26 5
26 20 0 11 7 20 15 20 24 0 18 -24 -25 -110 -27 -53 -40 -93 -40 -120 l0 -40
65 0 65 0 0 40 c0 33 -4 40 -19 40 -10 0 -21 -7 -25 -15 -5 -14 -36 -22 -36
-10 0 3 18 39 40 79 42 76 53 143 27 164 -22 18 -61 23 -87 9z"/>
<path d="M2960 2407 c-25 -12 -25 -15 -28 -149 l-3 -137 26 -17 c20 -13 33
-15 58 -8 31 9 32 12 37 69 3 33 4 99 2 146 -3 81 -5 87 -28 98 -31 14 -33 14
-64 -2z"/>
<path d="M3092 2383 c-26 -28 -25 -59 1 -57 15 2 17 -10 17 -92 0 -56 -4 -94
-10 -94 -5 0 -10 -9 -10 -20 0 -17 7 -20 41 -20 l42 0 -7 38 c-3 20 -6 90 -6
155 0 115 0 117 -22 116 -13 -1 -33 -12 -46 -26z"/>
<path d="M3180 2370 c0 -33 4 -40 19 -40 10 0 21 7 25 15 3 8 10 15 16 15 13
0 11 -12 -21 -146 -25 -106 -24 -114 5 -114 28 0 26 -5 60 150 38 167 39 160
-39 160 l-65 0 0 -40z"/>
<path d="M3658 1830 c-25 -25 -29 -37 -26 -67 l4 -36 -22 28 c-20 25 -25 27
-39 15 -10 -8 -27 -19 -38 -25 -12 -6 -31 -25 -43 -43 -17 -24 -23 -28 -28
-16 -4 11 -10 12 -23 5 -76 -40 -272 -84 -369 -82 l-51 1 5 -135 c3 -96 1
-135 -7 -135 -6 0 -11 -11 -11 -25 0 -24 3 -25 60 -25 55 0 60 2 61 23 l0 22
10 -24 c7 -18 14 -22 32 -17 12 3 33 6 46 6 18 0 22 4 17 17 -7 18 -22 116
-31 208 -4 38 -3 45 4 28 11 -25 12 -26 35 -17 9 3 16 16 16 28 1 38 16 -4 35
-96 13 -67 15 -91 6 -102 -16 -19 -3 -46 21 -46 12 0 38 5 59 12 30 9 39 16
39 34 0 13 -7 24 -17 26 -11 2 -24 32 -43 101 -15 53 -23 97 -19 97 5 0 9 -5
9 -11 0 -6 10 -9 23 -7 17 2 21 9 19 28 -4 40 14 12 51 -81 24 -60 33 -96 29
-119 -5 -32 -4 -33 24 -27 16 3 46 13 67 22 33 13 36 18 27 35 -6 11 -17 20
-24 20 -12 0 -96 165 -96 189 0 33 25 -1 69 -94 l50 -105 38 0 c38 0 97 29
120 59 16 21 16 53 1 71 -7 8 -4 7 8 -3 30 -25 65 -21 111 12 41 30 67 78 53
101 -4 6 -45 50 -90 96 -96 97 -121 105 -172 54z m-41 -150 c16 8 31 16 34 18
4 1 23 -20 44 -48 41 -55 40 -57 -18 -91 -13 -7 -15 -14 -7 -28 9 -18 5 -31
-11 -31 -14 0 -111 179 -103 191 5 9 11 7 20 -6 12 -16 17 -17 41 -5z"/>
<path d="M2397 1843 c-4 -3 -7 -13 -7 -22 -1 -24 -149 -133 -183 -135 -11 -1
-25 -9 -31 -19 -9 -16 -5 -24 29 -53 45 -38 67 -40 75 -5 l5 23 20 -21 c15
-17 16 -21 3 -16 -11 4 -20 -1 -27 -13 -10 -18 -4 -25 40 -57 27 -21 53 -35
56 -31 4 3 8 22 9 42 2 19 27 85 56 146 l52 110 -34 29 c-35 29 -51 34 -63 22z"/>
<path d="M2520 1745 c-6 -8 -10 -20 -8 -27 3 -7 -22 -53 -54 -101 -32 -49 -58
-99 -58 -111 0 -42 77 -96 136 -96 21 0 30 11 59 73 18 39 40 89 49 110 15 38
38 52 29 18 -7 -26 27 -38 44 -15 20 27 16 8 -18 -92 -23 -65 -37 -94 -50 -97
-11 -3 -19 -14 -19 -26 0 -16 11 -24 52 -36 28 -8 55 -15 59 -15 14 0 22 42 9
50 -9 6 -5 31 15 104 15 53 32 96 36 96 5 0 9 -6 9 -14 0 -8 7 -17 16 -20 22
-9 24 -8 24 9 0 8 5 15 10 15 13 0 13 1 -6 -102 -10 -52 -24 -96 -35 -109 -38
-44 -29 -49 119 -65 l62 -7 0 47 c0 38 -3 46 -19 46 -10 0 -24 -7 -31 -15 -7
-8 -19 -15 -28 -15 -11 0 -13 8 -9 36 8 46 10 48 36 33 25 -16 27 -14 35 39 5
36 4 42 -12 42 -10 0 -23 -5 -30 -12 -9 -9 -12 -3 -12 30 0 45 12 54 32 22 7
-11 21 -20 30 -20 15 0 18 9 18 45 0 25 -4 45 -10 45 -5 0 -10 8 -10 18 0 28
-44 48 -75 34 -14 -6 -25 -19 -25 -28 0 -12 -6 -15 -22 -10 -13 4 -48 14 -78
22 -67 18 -163 60 -210 91 -41 27 -44 28 -60 8z"/>
</g>
</svg>
